<mxfile host="app.diagrams.net" modified="2023-01-22T19:01:22.096Z" agent="5.0 (X11)" etag="hOC12kh_kHV80msFli-d" version="20.8.10" type="github">
  <diagram name="Page-1" id="lNEKghWK4HpwLcd3As6p">
    <mxGraphModel dx="1657" dy="1317" grid="1" gridSize="10" guides="1" tooltips="1" connect="1" arrows="1" fold="1" page="1" pageScale="1" pageWidth="850" pageHeight="1100" math="0" shadow="0">
      <root>
        <mxCell id="0" />
        <mxCell id="1" parent="0" />
        <mxCell id="SjYCULXTHA_i4y1ECdcX-1" value="RimBoar Scene System" style="rounded=0;whiteSpace=wrap;html=1;fontSize=16;strokeColor=none;" vertex="1" parent="1">
          <mxGeometry x="790" y="40" width="120" height="60" as="geometry" />
        </mxCell>
        <mxCell id="SjYCULXTHA_i4y1ECdcX-21" style="edgeStyle=orthogonalEdgeStyle;rounded=0;orthogonalLoop=1;jettySize=auto;html=1;exitX=0.5;exitY=1;exitDx=0;exitDy=0;entryX=0.423;entryY=-0.025;entryDx=0;entryDy=0;entryPerimeter=0;fontSize=16;" edge="1" parent="1" source="SjYCULXTHA_i4y1ECdcX-2" target="SjYCULXTHA_i4y1ECdcX-10">
          <mxGeometry relative="1" as="geometry" />
        </mxCell>
        <mxCell id="SjYCULXTHA_i4y1ECdcX-2" value="&lt;b&gt;GameApplication&lt;/b&gt;" style="swimlane;fontStyle=0;childLayout=stackLayout;horizontal=1;startSize=30;horizontalStack=0;resizeParent=1;resizeParentMax=0;resizeLast=0;collapsible=1;marginBottom=0;whiteSpace=wrap;html=1;fontSize=16;" vertex="1" parent="1">
          <mxGeometry x="310" y="180" width="190" height="60" as="geometry" />
        </mxCell>
        <mxCell id="SjYCULXTHA_i4y1ECdcX-3" value="std::unique_ptr&amp;lt;Scene&amp;gt;" style="text;strokeColor=none;fillColor=none;align=left;verticalAlign=middle;spacingLeft=4;spacingRight=4;overflow=hidden;points=[[0,0.5],[1,0.5]];portConstraint=eastwest;rotatable=0;whiteSpace=wrap;html=1;fontSize=14;" vertex="1" parent="SjYCULXTHA_i4y1ECdcX-2">
          <mxGeometry y="30" width="190" height="30" as="geometry" />
        </mxCell>
        <mxCell id="SjYCULXTHA_i4y1ECdcX-10" value="Scene" style="swimlane;fontStyle=1;childLayout=stackLayout;horizontal=1;startSize=30;horizontalStack=0;resizeParent=1;resizeParentMax=0;resizeLast=0;collapsible=1;marginBottom=0;whiteSpace=wrap;html=1;fontSize=16;" vertex="1" parent="1">
          <mxGeometry x="295" y="370" width="260" height="120" as="geometry" />
        </mxCell>
        <mxCell id="SjYCULXTHA_i4y1ECdcX-11" value="void update(const double delta)" style="text;strokeColor=default;fillColor=none;align=left;verticalAlign=middle;spacingLeft=4;spacingRight=4;overflow=hidden;points=[[0,0.5],[1,0.5]];portConstraint=eastwest;rotatable=0;whiteSpace=wrap;html=1;fontSize=14;" vertex="1" parent="SjYCULXTHA_i4y1ECdcX-10">
          <mxGeometry y="30" width="260" height="30" as="geometry" />
        </mxCell>
        <mxCell id="SjYCULXTHA_i4y1ECdcX-12" value="void render() const" style="text;strokeColor=default;fillColor=none;align=left;verticalAlign=middle;spacingLeft=4;spacingRight=4;overflow=hidden;points=[[0,0.5],[1,0.5]];portConstraint=eastwest;rotatable=0;whiteSpace=wrap;html=1;fontSize=14;" vertex="1" parent="SjYCULXTHA_i4y1ECdcX-10">
          <mxGeometry y="60" width="260" height="30" as="geometry" />
        </mxCell>
        <mxCell id="SjYCULXTHA_i4y1ECdcX-13" value="void update_hud()" style="text;strokeColor=none;fillColor=none;align=left;verticalAlign=middle;spacingLeft=4;spacingRight=4;overflow=hidden;points=[[0,0.5],[1,0.5]];portConstraint=eastwest;rotatable=0;whiteSpace=wrap;html=1;fontSize=14;" vertex="1" parent="SjYCULXTHA_i4y1ECdcX-10">
          <mxGeometry y="90" width="260" height="30" as="geometry" />
        </mxCell>
        <mxCell id="SjYCULXTHA_i4y1ECdcX-14" value="GraphicManager" style="swimlane;fontStyle=1;childLayout=stackLayout;horizontal=1;startSize=30;horizontalStack=0;resizeParent=1;resizeParentMax=0;resizeLast=0;collapsible=1;marginBottom=0;whiteSpace=wrap;html=1;fontSize=16;" vertex="1" parent="1">
          <mxGeometry x="650" y="400" width="360" height="90" as="geometry" />
        </mxCell>
        <mxCell id="SjYCULXTHA_i4y1ECdcX-15" value="std::function&amp;lt;void(SDL_Renderer*) render_func" style="text;strokeColor=default;fillColor=none;align=left;verticalAlign=middle;spacingLeft=4;spacingRight=4;overflow=hidden;points=[[0,0.5],[1,0.5]];portConstraint=eastwest;rotatable=0;whiteSpace=wrap;html=1;fontSize=14;" vertex="1" parent="SjYCULXTHA_i4y1ECdcX-14">
          <mxGeometry y="30" width="360" height="30" as="geometry" />
        </mxCell>
        <mxCell id="SjYCULXTHA_i4y1ECdcX-16" value="std::function&amp;lt;void(void)&amp;gt; hud_func" style="text;strokeColor=none;fillColor=none;align=left;verticalAlign=middle;spacingLeft=4;spacingRight=4;overflow=hidden;points=[[0,0.5],[1,0.5]];portConstraint=eastwest;rotatable=0;whiteSpace=wrap;html=1;fontSize=14;" vertex="1" parent="SjYCULXTHA_i4y1ECdcX-14">
          <mxGeometry y="60" width="360" height="30" as="geometry" />
        </mxCell>
        <mxCell id="SjYCULXTHA_i4y1ECdcX-18" value="Points to" style="edgeStyle=orthogonalEdgeStyle;rounded=0;orthogonalLoop=1;jettySize=auto;html=1;exitX=0;exitY=0.5;exitDx=0;exitDy=0;entryX=1;entryY=0.5;entryDx=0;entryDy=0;fontSize=16;" edge="1" parent="1" source="SjYCULXTHA_i4y1ECdcX-15" target="SjYCULXTHA_i4y1ECdcX-12">
          <mxGeometry relative="1" as="geometry" />
        </mxCell>
        <mxCell id="SjYCULXTHA_i4y1ECdcX-19" value="Points to" style="edgeStyle=orthogonalEdgeStyle;rounded=0;orthogonalLoop=1;jettySize=auto;html=1;exitX=0;exitY=0.5;exitDx=0;exitDy=0;entryX=1;entryY=0.5;entryDx=0;entryDy=0;fontSize=16;" edge="1" parent="1" source="SjYCULXTHA_i4y1ECdcX-16" target="SjYCULXTHA_i4y1ECdcX-13">
          <mxGeometry relative="1" as="geometry" />
        </mxCell>
        <mxCell id="SjYCULXTHA_i4y1ECdcX-22" value="&lt;div&gt;update is executed directly on GameApplication, &lt;br&gt;&lt;/div&gt;&lt;div&gt;it&#39;s designed to update non-graphical logic&lt;br&gt;&lt;/div&gt;" style="edgeStyle=orthogonalEdgeStyle;rounded=0;orthogonalLoop=1;jettySize=auto;html=1;exitX=1;exitY=0.5;exitDx=0;exitDy=0;entryX=1;entryY=0.25;entryDx=0;entryDy=0;fontSize=12;" edge="1" parent="1" source="SjYCULXTHA_i4y1ECdcX-11" target="SjYCULXTHA_i4y1ECdcX-2">
          <mxGeometry relative="1" as="geometry" />
        </mxCell>
        <mxCell id="SjYCULXTHA_i4y1ECdcX-23" value="&lt;div&gt;SDLHandler&lt;/div&gt;" style="swimlane;fontStyle=1;childLayout=stackLayout;horizontal=1;startSize=30;horizontalStack=0;resizeParent=1;resizeParentMax=0;resizeLast=0;collapsible=1;marginBottom=0;whiteSpace=wrap;html=1;fontSize=16;" vertex="1" parent="1">
          <mxGeometry x="1275" y="300" width="440" height="60" as="geometry" />
        </mxCell>
        <mxCell id="SjYCULXTHA_i4y1ECdcX-24" value="void render(std;:function(void(SDL_Renderer*)&amp;gt; render_func" style="text;strokeColor=default;fillColor=none;align=left;verticalAlign=middle;spacingLeft=4;spacingRight=4;overflow=hidden;points=[[0,0.5],[1,0.5]];portConstraint=eastwest;rotatable=0;whiteSpace=wrap;html=1;fontSize=16;" vertex="1" parent="SjYCULXTHA_i4y1ECdcX-23">
          <mxGeometry y="30" width="440" height="30" as="geometry" />
        </mxCell>
        <mxCell id="SjYCULXTHA_i4y1ECdcX-26" value="&lt;div&gt;render_func is executed inside SDL_Handler, &lt;br&gt;&lt;/div&gt;&lt;div&gt;so it has access to SDL context&lt;br&gt;&lt;/div&gt;" style="edgeStyle=orthogonalEdgeStyle;rounded=0;orthogonalLoop=1;jettySize=auto;html=1;exitX=1;exitY=0.5;exitDx=0;exitDy=0;entryX=-0.008;entryY=0.1;entryDx=0;entryDy=0;entryPerimeter=0;fontSize=12;" edge="1" parent="1" source="SjYCULXTHA_i4y1ECdcX-15" target="SjYCULXTHA_i4y1ECdcX-24">
          <mxGeometry relative="1" as="geometry" />
        </mxCell>
        <mxCell id="SjYCULXTHA_i4y1ECdcX-27" value="ImGui" style="swimlane;fontStyle=1;childLayout=stackLayout;horizontal=1;startSize=30;horizontalStack=0;resizeParent=1;resizeParentMax=0;resizeLast=0;collapsible=1;marginBottom=0;whiteSpace=wrap;html=1;fontSize=16;" vertex="1" parent="1">
          <mxGeometry x="1275" y="520" width="440" height="60" as="geometry" />
        </mxCell>
        <mxCell id="SjYCULXTHA_i4y1ECdcX-28" value="void update_hud(std::function&amp;lt;void(void)&amp;gt;) hud_func" style="text;strokeColor=default;fillColor=none;align=left;verticalAlign=middle;spacingLeft=4;spacingRight=4;overflow=hidden;points=[[0,0.5],[1,0.5]];portConstraint=eastwest;rotatable=0;whiteSpace=wrap;html=1;fontSize=16;" vertex="1" parent="SjYCULXTHA_i4y1ECdcX-27">
          <mxGeometry y="30" width="440" height="30" as="geometry" />
        </mxCell>
        <mxCell id="SjYCULXTHA_i4y1ECdcX-29" value="&lt;div&gt;hud_func is executed inside ImGuiHandler,&lt;/div&gt;&lt;div&gt;so it has access to ImGui context&lt;/div&gt;" style="edgeStyle=orthogonalEdgeStyle;rounded=0;orthogonalLoop=1;jettySize=auto;html=1;entryX=0;entryY=0.5;entryDx=0;entryDy=0;fontSize=12;" edge="1" parent="1" source="SjYCULXTHA_i4y1ECdcX-16" target="SjYCULXTHA_i4y1ECdcX-28">
          <mxGeometry relative="1" as="geometry" />
        </mxCell>
      </root>
    </mxGraphModel>
  </diagram>
</mxfile>
